<?xml version="1.0" standalone="no"?>
<!DOCTYPE svg PUBLIC "-//W3C//DTD SVG 20010904//EN"
 "http://www.w3.org/TR/2001/REC-SVG-20010904/DTD/svg10.dtd">
<svg version="1.0" xmlns="http://www.w3.org/2000/svg"
 width="64.000000pt" height="64.000000pt" viewBox="0 0 64.000000 64.000000"
 preserveAspectRatio="xMidYMid meet">

<g transform="translate(0.000000,64.000000) scale(0.100000,-0.100000)"
fill="#006777" stroke="none">
<path d="M275 631 c-72 -18 -123 -60 -150 -123 -24 -58 -19 -119 16 -201 40
-95 161 -292 179 -292 18 0 139 197 179 292 46 108 38 197 -22 261 -46 50
-139 79 -202 63z m134 -80 c69 -49 87 -150 37 -215 -34 -45 -74 -66 -126 -66
-51 0 -92 21 -123 62 -32 43 -40 80 -27 127 29 108 151 155 239 92z"/>
<path d="M290 485 c0 -21 -5 -25 -30 -25 -28 0 -30 -3 -30 -34 0 -30 3 -35 28
-38 19 -2 28 -9 30 -25 3 -18 10 -23 32 -23 22 0 29 5 32 23 2 16 11 23 31 25
24 3 27 8 27 38 0 31 -2 34 -30 34 -25 0 -30 4 -30 25 0 21 -5 25 -30 25 -25
0 -30 -4 -30 -25z"/>
</g>
</svg>
