<svg width="422" height="421" viewBox="0 0 422 421" fill="none" xmlns="http://www.w3.org/2000/svg">
<path d="M318.706 172.813C325.592 177.946 325.592 177.946 327.092 181.949C327.303 184.919 326.539 186.48 324.639 188.71C321.835 190.17 320.455 190.294 317.324 189.944C315.025 188.469 315.025 188.469 312.688 186.5C302.136 178.026 290.104 176.34 276.937 177.61C269.241 179.433 262.483 183.334 256.641 188.607C253.909 190.472 252.151 190.413 248.914 189.944C246.215 188.172 245.698 186.931 244.793 183.828C244.793 180.156 245.622 179.435 248.09 176.787C268.861 160.187 296.194 157.188 318.706 172.813Z" fill="#006877"/>
<path d="M306.043 94.7656C310.385 95.6466 312.628 98.0571 315.676 101.138C316.696 102.13 316.696 102.13 317.737 103.142C318.145 103.566 318.553 103.99 318.973 104.427C321.575 103.286 323.258 101.957 325.206 99.9048C327.754 97.2326 329.482 95.5156 333.294 95.0226C336.282 95.3823 336.282 95.3823 338.754 97.0782C340.403 99.4937 340.403 99.4937 340.609 102.217C339.432 105.68 337.866 107.58 335.364 110.19C333.626 112.02 332.071 113.955 330.512 115.939C331.157 116.525 331.802 117.111 332.467 117.715C333.31 118.51 334.152 119.306 334.994 120.102C335.419 120.485 335.845 120.868 336.283 121.263C339.397 124.248 340.312 126.454 340.403 130.74C339.294 133.163 338.684 134.475 336.282 135.673C333.587 136.011 333.587 136.011 330.512 135.673C328.688 134.167 327.327 132.87 325.824 131.099C324.419 129.473 323.053 128.079 321.446 126.628C318.921 126.479 318.145 127.454 316.262 129.121C315.627 129.791 314.992 130.461 314.337 131.151C310.154 135.532 310.154 135.532 306.352 136.033C303.313 135.673 303.313 135.673 300.892 133.464C299.117 130.619 298.701 129.838 299.192 126.628C300.728 124.515 300.728 124.515 302.746 122.414C303.406 121.717 304.066 121.019 304.746 120.301C306.184 118.839 307.624 117.38 309.083 115.939C307.841 112.94 306.068 111.263 303.674 109.104C301.222 106.698 300.085 105.437 298.883 102.166C299.192 99.4937 299.192 99.4937 300.84 97.0782C303.313 95.3823 303.313 95.3823 306.043 94.7656Z" fill="#006877"/>
<path d="M239.554 94.6635C242.886 95.8981 245.102 98.6491 247.383 101.282C249.377 103.69 249.377 103.69 252.236 104.556C254.532 103.211 256.015 101.43 257.774 99.4429C262.303 94.7843 262.303 94.7843 265.707 94.6635C268.981 95.4518 270.228 95.8133 271.992 98.672C272.558 101.344 272.558 101.344 271.992 104.428C270.753 106.212 269.401 107.731 267.887 109.288C265.83 111.411 263.98 113.657 262.101 115.94C262.815 116.585 263.529 117.231 264.265 117.896C265.193 118.767 266.12 119.64 267.046 120.513C267.518 120.936 267.99 121.358 268.476 121.793C271.012 124.218 271.919 125.276 272.41 128.865C271.992 131.563 271.992 131.563 270.24 133.978C267.871 135.674 267.871 135.674 265.552 136.291C261.525 135.345 259.257 132.721 256.332 129.918C255.378 129.104 254.417 128.297 253.447 127.503C252.767 126.943 252.087 126.383 251.386 125.807C250.751 126.45 250.116 127.094 249.461 127.756C248.626 128.597 247.791 129.438 246.956 130.278C246.537 130.702 246.119 131.127 245.688 131.564C241.736 135.532 241.736 135.532 238.353 135.982C235.726 135.674 235.726 135.674 233.356 133.978C231.122 130.896 231.092 129.553 231.605 125.807C232.99 123.745 234.705 122.166 236.55 120.513C237.022 120.069 237.494 119.624 237.98 119.166C239.139 118.077 240.316 117.006 241.496 115.94C241.167 115.557 240.837 115.174 240.498 114.78C239.655 113.798 238.816 112.813 237.98 111.825C237.056 110.765 236.104 109.728 235.121 108.722C232.713 106.2 231.689 104.922 231.09 101.396C231.605 98.672 231.605 98.672 232.841 96.6678C235.082 95.2705 236.884 94.5835 239.554 94.6635Z" fill="#006877"/>
<path d="M261.337 26.413C222.749 36.2568 195.416 59.2256 180.946 93.6787C168.084 125.397 170.763 158.757 189.521 203.601C210.959 255.554 275.807 363.288 285.454 363.288C295.101 363.288 359.949 255.554 381.387 203.601C406.04 144.538 401.752 95.8662 369.596 60.8662C344.943 33.5224 295.101 17.663 261.337 26.413ZM333.152 70.1631C370.132 96.9599 379.779 152.194 352.982 187.741C334.76 212.351 313.323 223.835 285.454 223.835C258.121 223.835 236.148 212.351 219.534 189.929C202.384 166.413 198.096 146.179 205.063 120.476C220.605 61.4131 285.99 35.7099 333.152 70.1631Z" fill="#006877"/>
</svg>
