<svg width="36" height="36" viewBox="0 0 36 36" fill="none" xmlns="http://www.w3.org/2000/svg">
<path d="M17.8917 35.7833L12.5875 30.5583H5.225V23.1958L0 17.8917L5.225 12.5875V5.225H12.5875L17.8917 0L23.1958 5.225H30.5583V12.5875L35.7833 17.8917L30.5583 23.1958V30.5583H23.1958L17.8917 35.7833ZM17.8917 25.8083C20.0819 25.8083 21.949 25.0365 23.4927 23.4927C25.0365 21.949 25.8083 20.0819 25.8083 17.8917C25.8083 15.7014 25.0365 13.8344 23.4927 12.2906C21.949 10.7469 20.0819 9.975 17.8917 9.975V25.8083ZM17.8917 31.35L21.85 27.3917H27.3917V21.85L31.35 17.8917L27.3917 13.9333V8.39167H21.85L17.8917 4.43333L13.9333 8.39167H8.39167V13.9333L4.43333 17.8917L8.39167 21.85V27.3917H13.9333L17.8917 31.35Z" fill="#161D1D"/>
</svg>
