<svg width="38" height="38" viewBox="0 0 38 38" fill="none" xmlns="http://www.w3.org/2000/svg">
<mask id="mask0_66_1695" style="mask-type:alpha" maskUnits="userSpaceOnUse" x="0" y="0" width="38" height="38">
<rect width="38" height="38" fill="#D9D9D9"/>
</mask>
<g mask="url(#mask0_66_1695)">
<path d="M18.8416 34.8337L26.0458 15.8337H29.3708L36.5749 34.8337H33.2499L31.5478 30.0045H23.8687L22.1666 34.8337H18.8416ZM6.33325 30.0837L4.11659 27.867L12.1124 19.8712C11.1888 18.9475 10.351 17.892 9.59888 16.7045C8.84679 15.517 8.15409 14.1712 7.52075 12.667H10.8458C11.3735 13.6962 11.9013 14.5934 12.4291 15.3587C12.9569 16.1239 13.5902 16.8892 14.3291 17.6545C15.1999 16.7837 16.1037 15.5632 17.0405 13.993C17.9773 12.4229 18.6833 10.9253 19.1583 9.50033H1.58325V6.33366H12.6666V3.16699H15.8333V6.33366H26.9166V9.50033H22.3249C21.7708 11.4003 20.9395 13.3531 19.8312 15.3587C18.7228 17.3642 17.6277 18.8948 16.5458 19.9503L20.3458 23.8295L19.1583 27.0753L14.3291 22.1274L6.33325 30.0837ZM24.8583 27.2337H30.5583L27.7083 19.1587L24.8583 27.2337Z" fill="#161D1D"/>
</g>
</svg>
